<?xml version="1.0" encoding="UTF-8" standalone="no"?><!-- Generator: Gravit.io --><svg xmlns="http://www.w3.org/2000/svg" xmlns:xlink="http://www.w3.org/1999/xlink" style="isolation:isolate" viewBox="0 0 424.793 204" width="424.793pt" height="204pt"><g><path d=" M 124.093 140.98 L 124.093 140.98 L 124.093 140.98 Q 116.533 140.98 109.813 138.25 L 109.813 138.25 L 109.813 138.25 Q 103.093 135.52 98.963 129.92 L 98.963 129.92 L 98.963 129.92 Q 94.833 124.32 94.833 115.92 L 94.833 115.92 L 94.833 115.92 Q 94.833 108.64 97.703 104.58 L 97.703 104.58 L 97.703 104.58 Q 100.573 100.52 104.773 98.84 L 104.773 98.84 L 104.773 98.84 Q 108.973 97.16 112.753 97.16 L 112.753 97.16 L 112.753 97.16 Q 108.973 101.22 107.013 106.12 L 107.013 106.12 L 107.013 106.12 Q 105.053 111.02 105.053 115.92 L 105.053 115.92 L 105.053 115.92 Q 105.053 121.1 107.363 125.58 L 107.363 125.58 L 107.363 125.58 Q 109.673 130.06 114.433 132.79 L 114.433 132.79 L 114.433 132.79 Q 119.193 135.52 126.473 135.52 L 126.473 135.52 L 126.473 135.52 Q 132.773 135.52 138.793 133.21 L 138.793 133.21 L 138.793 133.21 Q 144.813 130.9 148.663 126.35 L 148.663 126.35 L 148.663 126.35 Q 152.513 121.8 152.513 115.08 L 152.513 115.08 L 152.513 115.08 Q 152.513 109.06 149.433 104.72 L 149.433 104.72 L 149.433 104.72 Q 146.353 100.38 141.523 97.02 L 141.523 97.02 L 141.523 97.02 Q 136.693 93.66 131.233 90.58 L 131.233 90.58 L 131.233 90.58 Q 125.773 87.5 120.943 84.07 L 120.943 84.07 L 120.943 84.07 Q 116.113 80.64 113.033 76.16 L 113.033 76.16 L 113.033 76.16 Q 109.953 71.68 109.953 65.38 L 109.953 65.38 L 109.953 65.38 Q 109.953 59.5 112.753 53.06 L 112.753 53.06 L 112.753 53.06 Q 115.553 46.62 120.803 40.88 L 120.803 40.88 L 120.803 40.88 Q 126.053 35.14 133.403 31.57 L 133.403 31.57 L 133.403 31.57 Q 140.753 28 149.853 28 L 149.853 28 L 149.853 28 Q 158.113 28 161.333 31.99 L 161.333 31.99 L 161.333 31.99 Q 164.553 35.98 164.553 42 L 164.553 42 L 164.553 42 Q 164.553 47.04 162.803 52.85 L 162.803 52.85 L 162.803 52.85 Q 161.053 58.66 158.533 63.91 L 158.533 63.91 L 158.533 63.91 Q 156.013 69.16 153.773 72.8 L 153.773 72.8 L 153.773 72.8 Q 151.253 72.24 150.203 70.63 L 150.203 70.63 L 150.203 70.63 Q 149.153 69.02 149.153 66.78 L 149.153 66.78 L 149.153 66.78 Q 149.153 63.84 150.413 60.06 L 150.413 60.06 L 150.413 60.06 Q 151.673 56.28 153.283 52.22 L 153.283 52.22 L 153.283 52.22 Q 154.893 48.16 156.153 44.31 L 156.153 44.31 L 156.153 44.31 Q 157.413 40.46 157.413 37.38 L 157.413 37.38 L 157.413 37.38 Q 157.413 34.58 155.733 32.97 L 155.733 32.97 L 155.733 32.97 Q 154.053 31.36 149.573 31.36 L 149.573 31.36 L 149.573 31.36 Q 142.993 31.36 137.393 34.44 L 137.393 34.44 L 137.393 34.44 Q 131.793 37.52 127.593 42.35 L 127.593 42.35 L 127.593 42.35 Q 123.393 47.18 121.083 52.5 L 121.083 52.5 L 121.083 52.5 Q 118.773 57.82 118.773 62.16 L 118.773 62.16 L 118.773 62.16 Q 118.773 67.34 121.783 71.05 L 121.783 71.05 L 121.783 71.05 Q 124.793 74.76 129.553 77.77 L 129.553 77.77 L 129.553 77.77 Q 134.313 80.78 139.703 83.79 L 139.703 83.79 L 139.703 83.79 Q 145.093 86.8 149.853 90.44 L 149.853 90.44 L 149.853 90.44 Q 154.613 94.08 157.623 99.05 L 157.623 99.05 L 157.623 99.05 Q 160.633 104.02 160.633 111.16 L 160.633 111.16 L 160.633 111.16 Q 160.633 118.44 157.413 123.97 L 157.413 123.97 L 157.413 123.97 Q 154.193 129.5 148.803 133.28 L 148.803 133.28 L 148.803 133.28 Q 143.413 137.06 136.973 139.02 L 136.973 139.02 L 136.973 139.02 Q 130.533 140.98 124.093 140.98 Z  M 161.893 168 L 161.893 168 L 161.893 168 Q 160.773 168 159.723 166.81 L 159.723 166.81 L 159.723 166.81 Q 158.673 165.62 158.113 164.29 L 158.113 164.29 L 158.113 164.29 Q 157.553 162.96 157.553 162.68 L 157.553 162.68 L 157.553 162.68 Q 159.513 155.82 161.403 150.43 L 161.403 150.43 L 161.403 150.43 Q 163.293 145.04 165.183 139.37 L 165.183 139.37 L 165.183 139.37 Q 167.073 133.7 168.893 126.07 L 168.893 126.07 L 168.893 126.07 Q 170.713 118.44 172.673 107.1 L 172.673 107.1 L 172.673 107.1 Q 174.633 95.76 176.593 78.96 L 176.593 78.96 L 176.593 78.96 Q 176.733 77.7 177.153 77.14 L 177.153 77.14 L 177.153 77.14 Q 177.573 76.58 179.253 76.58 L 179.253 76.58 L 179.253 76.58 Q 182.893 76.58 184.433 78.61 L 184.433 78.61 L 184.433 78.61 Q 185.973 80.64 185.973 83.02 L 185.973 83.02 L 185.973 83.02 Q 185.973 84.98 185.133 90.02 L 185.133 90.02 L 185.133 90.02 Q 184.293 95.06 182.753 101.92 L 182.753 101.92 L 182.753 101.92 Q 185.133 97.3 188.703 92.54 L 188.703 92.54 L 188.703 92.54 Q 192.273 87.78 196.893 84.56 L 196.893 84.56 L 196.893 84.56 Q 201.513 81.34 206.973 81.34 L 206.973 81.34 L 206.973 81.34 Q 213.133 81.34 217.123 85.75 L 217.123 85.75 L 217.123 85.75 Q 221.113 90.16 221.113 97.3 L 221.113 97.3 L 221.113 97.3 Q 221.113 102.76 218.663 108.85 L 218.663 108.85 L 218.663 108.85 Q 216.213 114.94 211.803 120.33 L 211.803 120.33 L 211.803 120.33 Q 207.393 125.72 201.373 129.08 L 201.373 129.08 L 201.373 129.08 Q 195.353 132.44 188.073 132.44 L 188.073 132.44 L 188.073 132.44 Q 184.433 132.44 182.193 131.6 L 182.193 131.6 L 182.193 131.6 Q 179.953 130.76 179.953 129.92 L 179.953 129.92 L 179.953 129.92 Q 179.953 129.36 181.003 129.29 L 181.003 129.29 L 181.003 129.29 Q 182.053 129.22 183.453 129.22 L 183.453 129.22 L 183.453 129.22 Q 189.053 129.22 194.163 126.49 L 194.163 126.49 L 194.163 126.49 Q 199.273 123.76 203.333 119.28 L 203.333 119.28 L 203.333 119.28 Q 207.393 114.8 209.703 109.34 L 209.703 109.34 L 209.703 109.34 Q 212.013 103.88 212.013 98.56 L 212.013 98.56 L 212.013 98.56 Q 212.013 94.08 210.123 90.93 L 210.123 90.93 L 210.123 90.93 Q 208.233 87.78 204.033 87.78 L 204.033 87.78 L 204.033 87.78 Q 200.393 87.78 196.823 90.09 L 196.823 90.09 L 196.823 90.09 Q 193.253 92.4 190.103 95.97 L 190.103 95.97 L 190.103 95.97 Q 186.953 99.54 184.503 103.39 L 184.503 103.39 L 184.503 103.39 Q 182.053 107.24 180.793 110.32 L 180.793 110.32 L 180.793 110.32 Q 178.273 120.82 175.753 130.55 L 175.753 130.55 L 175.753 130.55 Q 173.233 140.28 170.923 148.19 L 170.923 148.19 L 170.923 148.19 Q 168.613 156.1 166.723 161.14 L 166.723 161.14 L 166.723 161.14 Q 164.833 166.18 163.573 167.3 L 163.573 167.3 L 163.573 167.3 Q 162.873 168 161.893 168 Z  M 232.173 135.38 L 232.173 135.38 L 232.173 135.38 Q 227.833 135.38 224.823 132.51 L 224.823 132.51 L 224.823 132.51 Q 221.813 129.64 221.813 123.76 L 221.813 123.76 L 221.813 123.76 Q 221.813 118.72 224.053 112.91 L 224.053 112.91 L 224.053 112.91 Q 226.293 107.1 230.213 101.43 L 230.213 101.43 L 230.213 101.43 Q 234.133 95.76 239.103 91.07 L 239.103 91.07 L 239.103 91.07 Q 244.073 86.38 249.603 83.58 L 249.603 83.58 L 249.603 83.58 Q 255.133 80.78 260.593 80.78 L 260.593 80.78 L 260.593 80.78 Q 266.053 80.78 269.693 83.65 L 269.693 83.65 L 269.693 83.65 Q 273.333 86.52 273.333 91.28 L 273.333 91.28 L 273.333 91.28 Q 273.333 94.78 271.443 96.04 L 271.443 96.04 L 271.443 96.04 Q 269.553 97.3 266.473 97.3 L 266.473 97.3 L 266.473 97.3 Q 266.753 96.18 266.963 94.85 L 266.963 94.85 L 266.963 94.85 Q 267.173 93.52 267.173 92.4 L 267.173 92.4 L 267.173 92.4 Q 267.173 89.18 265.633 86.87 L 265.633 86.87 L 265.633 86.87 Q 264.093 84.56 260.313 84.56 L 260.313 84.56 L 260.313 84.56 Q 256.393 84.56 252.333 87.29 L 252.333 87.29 L 252.333 87.29 Q 248.273 90.02 244.493 94.57 L 244.493 94.57 L 244.493 94.57 Q 240.713 99.12 237.773 104.44 L 237.773 104.44 L 237.773 104.44 Q 234.833 109.76 233.153 114.94 L 233.153 114.94 L 233.153 114.94 Q 231.473 120.12 231.473 124.18 L 231.473 124.18 L 231.473 124.18 Q 231.473 129.64 235.253 129.64 L 235.253 129.64 L 235.253 129.64 Q 238.473 129.64 242.253 126.63 L 242.253 126.63 L 242.253 126.63 Q 246.033 123.62 250.023 118.93 L 250.023 118.93 L 250.023 118.93 Q 254.013 114.24 257.653 109.2 L 257.653 109.2 L 257.653 109.2 Q 261.293 104.16 264.093 99.96 L 264.093 99.96 L 264.093 99.96 Q 264.653 99.12 264.793 99.12 L 264.793 99.12 L 264.793 99.12 Q 265.633 99.26 266.963 99.68 L 266.963 99.68 L 266.963 99.68 Q 268.293 100.1 269.273 100.8 L 269.273 100.8 L 269.273 100.8 Q 270.253 101.5 270.253 102.62 L 270.253 102.62 L 270.253 102.62 Q 270.253 103.88 268.993 106.05 L 268.993 106.05 L 268.993 106.05 Q 267.733 108.22 266.193 111.02 L 266.193 111.02 L 266.193 111.02 Q 264.653 113.82 263.393 116.69 L 263.393 116.69 L 263.393 116.69 Q 262.133 119.56 262.133 122.08 L 262.133 122.08 L 262.133 122.08 Q 262.133 124.18 263.253 126.21 L 263.253 126.21 L 263.253 126.21 Q 264.373 128.24 266.893 128.24 L 266.893 128.24 L 266.893 128.24 Q 270.673 128.24 276.833 122.71 L 276.833 122.71 L 276.833 122.71 Q 282.993 117.18 289.293 106.12 L 289.293 106.12 L 290.693 107.52 L 290.693 107.52 Q 287.753 115.08 283.133 120.82 L 283.133 120.82 L 283.133 120.82 Q 278.513 126.56 273.263 129.78 L 273.263 129.78 L 273.263 129.78 Q 268.013 133 262.973 133 L 262.973 133 L 262.973 133 Q 257.793 133 255.343 129.92 L 255.343 129.92 L 255.343 129.92 Q 252.893 126.84 252.893 123.2 L 252.893 123.2 L 252.893 123.2 Q 252.893 122.36 253.033 121.31 L 253.033 121.31 L 253.033 121.31 Q 253.173 120.26 253.313 119.14 L 253.313 119.14 L 253.313 119.14 Q 247.293 127.26 242.323 131.32 L 242.323 131.32 L 242.323 131.32 Q 237.353 135.38 232.173 135.38 Z " fill="rgb(255,77,217)"/><path d=" M 331.713 131.6 L 331.713 131.6 L 331.713 131.6 Q 326.813 131.6 324.363 129.08 L 324.363 129.08 L 324.363 129.08 Q 321.913 126.56 321.913 122.64 L 321.913 122.64 L 321.913 122.64 Q 321.913 119.7 322.963 116.48 L 322.963 116.48 L 322.963 116.48 Q 324.013 113.26 324.993 109.83 L 324.993 109.83 L 324.993 109.83 Q 325.973 106.4 325.973 103.18 L 325.973 103.18 L 325.973 103.18 Q 325.973 99.26 324.363 97.79 L 324.363 97.79 L 324.363 97.79 Q 322.753 96.32 320.373 96.32 L 320.373 96.32 L 320.373 96.32 Q 316.033 96.32 311.553 99.89 L 311.553 99.89 L 311.553 99.89 Q 307.073 103.46 302.873 108.99 L 302.873 108.99 L 302.873 108.99 Q 298.673 114.52 295.033 120.4 L 295.033 120.4 L 295.033 120.4 Q 291.393 126.28 288.593 130.9 L 288.593 130.9 L 288.593 130.9 Q 286.353 130.9 284.323 130.13 L 284.323 130.13 L 284.323 130.13 Q 282.293 129.36 281.173 127.82 L 281.173 127.82 L 281.173 127.82 Q 281.173 127.12 282.643 123.48 L 282.643 123.48 L 282.643 123.48 Q 284.113 119.84 286.073 114.52 L 286.073 114.52 L 286.073 114.52 Q 288.033 109.2 289.573 103.6 L 289.573 103.6 L 289.573 103.6 Q 291.113 98 291.113 93.38 L 291.113 93.38 L 291.113 93.38 Q 291.953 92.4 293.773 91.42 L 293.773 91.42 L 293.773 91.42 Q 295.593 90.44 297.553 90.44 L 297.553 90.44 L 297.553 90.44 Q 301.333 90.44 301.333 94.08 L 301.333 94.08 L 301.333 94.08 Q 301.333 96.32 300.073 101.57 L 300.073 101.57 L 300.073 101.57 Q 298.813 106.82 296.853 112.56 L 296.853 112.56 L 296.853 112.56 Q 300.633 106.82 305.323 101.15 L 305.323 101.15 L 305.323 101.15 Q 310.013 95.48 315.333 91.7 L 315.333 91.7 L 315.333 91.7 Q 320.653 87.92 325.973 87.92 L 325.973 87.92 L 325.973 87.92 Q 331.433 87.92 333.883 91.84 L 333.883 91.84 L 333.883 91.84 Q 336.333 95.76 336.333 100.52 L 336.333 100.52 L 336.333 100.52 Q 336.333 104.86 334.933 108.57 L 334.933 108.57 L 334.933 108.57 Q 333.533 112.28 332.063 115.71 L 332.063 115.71 L 332.063 115.71 Q 330.593 119.14 330.593 122.64 L 330.593 122.64 L 330.593 122.64 Q 330.593 125.58 331.783 126.77 L 331.783 126.77 L 331.783 126.77 Q 332.973 127.96 334.793 127.96 L 334.793 127.96 L 334.793 127.96 Q 338.293 127.96 341.793 124.67 L 341.793 124.67 L 341.793 124.67 Q 345.293 121.38 348.583 116.34 L 348.583 116.34 L 348.583 116.34 Q 351.873 111.3 354.393 106.12 L 354.393 106.12 L 355.933 107.94 L 355.933 107.94 Q 352.993 114.8 349.353 120.12 L 349.353 120.12 L 349.353 120.12 Q 345.713 125.44 341.373 128.52 L 341.373 128.52 L 341.373 128.52 Q 337.033 131.6 331.713 131.6 Z  M 393.313 134.12 L 393.313 134.12 L 393.313 134.12 Q 389.393 134.12 386.593 131.46 L 386.593 131.46 L 386.593 131.46 Q 383.793 128.8 382.183 124.74 L 382.183 124.74 L 382.183 124.74 Q 380.573 120.68 379.803 116.41 L 379.803 116.41 L 379.803 116.41 Q 379.033 112.14 379.033 108.92 L 379.033 108.92 L 379.033 108.92 Q 380.573 108.92 383.513 108.15 L 383.513 108.15 L 383.513 108.15 Q 386.453 107.38 389.533 105.77 L 389.533 105.77 L 389.533 105.77 Q 392.613 104.16 394.783 101.57 L 394.783 101.57 L 394.783 101.57 Q 396.953 98.98 396.953 95.48 L 396.953 95.48 L 396.953 95.48 Q 396.953 92.54 394.853 90.86 L 394.853 90.86 L 394.853 90.86 Q 392.753 89.18 389.953 89.18 L 389.953 89.18 L 389.953 89.18 Q 385.613 89.18 381.833 92.19 L 381.833 92.19 L 381.833 92.19 Q 378.053 95.2 375.043 100.03 L 375.043 100.03 L 375.043 100.03 Q 372.033 104.86 369.653 110.32 L 369.653 110.32 L 369.653 110.32 Q 367.273 115.78 365.593 120.68 L 365.593 120.68 L 365.593 120.68 Q 363.913 125.58 362.793 128.8 L 362.793 128.8 L 362.793 128.8 Q 361.953 131.32 360.413 132.23 L 360.413 132.23 L 360.413 132.23 Q 358.873 133.14 357.193 133.14 L 357.193 133.14 L 357.193 133.14 Q 354.813 133.14 353.763 131.18 L 353.763 131.18 L 353.763 131.18 Q 352.713 129.22 352.503 126.21 L 352.503 126.21 L 352.503 126.21 Q 352.293 123.2 352.293 119.98 L 352.293 119.98 L 352.293 119.98 Q 352.293 112.7 354.673 103.18 L 354.673 103.18 L 354.673 103.18 Q 357.053 93.66 361.043 83.37 L 361.043 83.37 L 361.043 83.37 Q 365.033 73.08 369.793 63.42 L 369.793 63.42 L 369.793 63.42 Q 374.553 53.76 379.313 45.92 L 379.313 45.92 L 379.313 45.92 Q 384.073 38.08 388.133 33.46 L 388.133 33.46 L 388.133 33.46 Q 392.193 28.84 394.713 28.84 L 394.713 28.84 L 394.713 28.84 Q 396.673 28.84 397.863 31.5 L 397.863 31.5 L 397.863 31.5 Q 399.053 34.16 399.053 37.94 L 399.053 37.94 L 399.053 37.94 Q 399.053 42.7 396.953 48.65 L 396.953 48.65 L 396.953 48.65 Q 394.853 54.6 391.003 60.62 L 391.003 60.62 L 391.003 60.62 Q 387.153 66.64 381.903 71.96 L 381.903 71.96 L 381.903 71.96 Q 376.653 77.28 370.493 81.06 L 370.493 81.06 L 370.493 81.06 Q 365.873 92.4 363.563 103.11 L 363.563 103.11 L 363.563 103.11 Q 361.253 113.82 361.253 121.1 L 361.253 121.1 L 361.253 121.1 Q 363.493 115.5 366.643 108.78 L 366.643 108.78 L 366.643 108.78 Q 369.793 102.06 373.853 95.9 L 373.853 95.9 L 373.853 95.9 Q 377.913 89.74 382.673 85.82 L 382.673 85.82 L 382.673 85.82 Q 387.433 81.9 392.613 81.9 L 392.613 81.9 L 392.613 81.9 Q 397.793 81.9 401.433 85.54 L 401.433 85.54 L 401.433 85.54 Q 405.073 89.18 405.073 94.36 L 405.073 94.36 L 405.073 94.36 Q 405.073 98.84 402.763 101.99 L 402.763 101.99 L 402.763 101.99 Q 400.453 105.14 397.163 107.03 L 397.163 107.03 L 397.163 107.03 Q 393.873 108.92 390.583 109.83 L 390.583 109.83 L 390.583 109.83 Q 387.293 110.74 385.193 110.74 L 385.193 110.74 L 385.193 110.74 Q 385.333 111.86 386.033 114.8 L 386.033 114.8 L 386.033 114.8 Q 386.733 117.74 388.063 120.96 L 388.063 120.96 L 388.063 120.96 Q 389.393 124.18 391.353 126.49 L 391.353 126.49 L 391.353 126.49 Q 393.313 128.8 396.113 128.8 L 396.113 128.8 L 396.113 128.8 Q 400.173 128.8 403.813 125.72 L 403.813 125.72 L 403.813 125.72 Q 407.453 122.64 410.743 117.53 L 410.743 117.53 L 410.743 117.53 Q 414.033 112.42 416.833 105.98 L 416.833 105.98 L 418.233 107.38 L 418.233 107.38 Q 416.273 114.24 412.213 120.33 L 412.213 120.33 L 412.213 120.33 Q 408.153 126.42 403.183 130.27 L 403.183 130.27 L 403.183 130.27 Q 398.213 134.12 393.313 134.12 Z  M 372.873 75.46 L 372.873 75.46 L 372.873 75.46 Q 379.313 70.28 384.143 63.7 L 384.143 63.7 L 384.143 63.7 Q 388.973 57.12 391.633 51.03 L 391.633 51.03 L 391.633 51.03 Q 394.293 44.94 394.293 41.44 L 394.293 41.44 L 394.293 41.44 Q 394.293 40.74 394.223 40.46 L 394.223 40.46 L 394.223 40.46 Q 394.153 40.18 393.873 40.18 L 393.873 40.18 L 393.873 40.18 Q 392.473 40.18 389.043 45.08 L 389.043 45.08 L 389.043 45.08 Q 385.613 49.98 381.273 58.03 L 381.273 58.03 L 381.273 58.03 Q 376.933 66.08 372.873 75.46 Z " fill="rgb(98,98,98)"/><path d=" M 390.965 178.968 L 390.077 180.744 L 390.077 180.744 Q 389.189 180.288 388.133 179.952 L 388.133 179.952 L 388.133 179.952 Q 387.077 179.616 386.069 179.616 L 386.069 179.616 L 386.069 179.616 Q 384.677 179.616 383.849 180.264 L 383.849 180.264 L 383.849 180.264 Q 383.021 180.912 383.021 181.992 L 383.021 181.992 L 383.021 181.992 Q 383.021 182.808 383.549 183.372 L 383.549 183.372 L 383.549 183.372 Q 384.077 183.936 384.941 184.344 L 384.941 184.344 L 384.941 184.344 Q 385.805 184.752 386.741 185.112 L 386.741 185.112 L 386.741 185.112 Q 387.557 185.424 388.349 185.808 L 388.349 185.808 L 388.349 185.808 Q 389.141 186.192 389.777 186.768 L 389.777 186.768 L 389.777 186.768 Q 390.413 187.344 390.785 188.184 L 390.785 188.184 L 390.785 188.184 Q 391.157 189.024 391.157 190.272 L 391.157 190.272 L 391.157 190.272 Q 391.157 191.64 390.473 192.768 L 390.473 192.768 L 390.473 192.768 Q 389.789 193.896 388.517 194.544 L 388.517 194.544 L 388.517 194.544 Q 387.245 195.192 385.493 195.192 L 385.493 195.192 L 385.493 195.192 Q 384.341 195.192 383.297 194.928 L 383.297 194.928 L 383.297 194.928 Q 382.253 194.664 381.365 194.244 L 381.365 194.244 L 381.365 194.244 Q 380.477 193.824 379.781 193.368 L 379.781 193.368 L 380.813 191.544 L 380.813 191.544 Q 381.389 191.952 382.133 192.324 L 382.133 192.324 L 382.133 192.324 Q 382.877 192.696 383.693 192.924 L 383.693 192.924 L 383.693 192.924 Q 384.509 193.152 385.277 193.152 L 385.277 193.152 L 385.277 193.152 Q 386.093 193.152 386.897 192.852 L 386.897 192.852 L 386.897 192.852 Q 387.701 192.552 388.229 191.928 L 388.229 191.928 L 388.229 191.928 Q 388.757 191.304 388.757 190.272 L 388.757 190.272 L 388.757 190.272 Q 388.757 189.384 388.289 188.796 L 388.289 188.796 L 388.289 188.796 Q 387.821 188.208 387.053 187.788 L 387.053 187.788 L 387.053 187.788 Q 386.285 187.368 385.421 187.032 L 385.421 187.032 L 385.421 187.032 Q 384.605 186.72 383.765 186.348 L 383.765 186.348 L 383.765 186.348 Q 382.925 185.976 382.205 185.436 L 382.205 185.436 L 382.205 185.436 Q 381.485 184.896 381.053 184.104 L 381.053 184.104 L 381.053 184.104 Q 380.621 183.312 380.621 182.184 L 380.621 182.184 L 380.621 182.184 Q 380.621 180.816 381.281 179.796 L 381.281 179.796 L 381.281 179.796 Q 381.941 178.776 383.093 178.188 L 383.093 178.188 L 383.093 178.188 Q 384.245 177.6 385.733 177.552 L 385.733 177.552 L 385.733 177.552 Q 387.413 177.552 388.697 177.96 L 388.697 177.96 L 388.697 177.96 Q 389.981 178.368 390.965 178.968 L 390.965 178.968 L 390.965 178.968 Z  M 394.069 177.648 L 398.701 177.648 L 398.701 177.648 Q 400.597 177.648 401.941 178.284 L 401.941 178.284 L 401.941 178.284 Q 403.285 178.92 404.017 180.12 L 404.017 180.12 L 404.017 180.12 Q 404.749 181.32 404.749 183.024 L 404.749 183.024 L 404.749 183.024 Q 404.749 184.056 404.437 185.052 L 404.437 185.052 L 404.437 185.052 Q 404.125 186.048 403.441 186.852 L 403.441 186.852 L 403.441 186.852 Q 402.757 187.656 401.653 188.136 L 401.653 188.136 L 401.653 188.136 Q 400.549 188.616 398.965 188.616 L 398.965 188.616 L 396.397 188.616 L 396.397 195 L 394.069 195 L 394.069 177.648 L 394.069 177.648 Z  M 396.397 186.384 L 398.941 186.384 L 398.941 186.384 Q 399.973 186.384 400.645 186.048 L 400.645 186.048 L 400.645 186.048 Q 401.317 185.712 401.701 185.196 L 401.701 185.196 L 401.701 185.196 Q 402.085 184.68 402.253 184.104 L 402.253 184.104 L 402.253 184.104 Q 402.421 183.528 402.421 183.072 L 402.421 183.072 L 402.421 183.072 Q 402.421 182.544 402.253 181.98 L 402.253 181.98 L 402.253 181.98 Q 402.085 181.416 401.689 180.948 L 401.689 180.948 L 401.689 180.948 Q 401.293 180.48 400.657 180.18 L 400.657 180.18 L 400.657 180.18 Q 400.021 179.88 399.085 179.88 L 399.085 179.88 L 396.397 179.88 L 396.397 186.384 L 396.397 186.384 Z  M 406.245 195 L 403.965 195 L 411.549 176.928 L 411.693 176.928 L 419.253 195 L 416.589 195 L 410.925 180.576 L 412.581 179.496 L 406.245 195 L 406.245 195 Z  M 407.733 190.44 L 408.405 188.424 L 414.861 188.424 L 415.629 190.44 L 407.733 190.44 L 407.733 190.44 Z  M 363.697 195.28 L 363.697 195.28 L 363.697 195.28 Q 362.073 195.28 360.743 194.58 L 360.743 194.58 L 360.743 194.58 Q 359.413 193.88 358.643 192.522 L 358.643 192.522 L 358.643 192.522 Q 357.873 191.164 357.873 189.204 L 357.873 189.204 L 357.873 189.204 Q 357.873 187.272 358.685 185.858 L 358.685 185.858 L 358.685 185.858 Q 359.497 184.444 360.855 183.688 L 360.855 183.688 L 360.855 183.688 Q 362.213 182.932 363.837 182.932 L 363.837 182.932 L 363.837 182.932 Q 365.461 182.932 366.581 183.674 L 366.581 183.674 L 366.581 183.674 Q 367.701 184.416 368.289 185.424 L 368.289 185.424 L 368.121 185.872 L 368.373 183.408 L 370.781 183.408 L 370.781 195 L 368.177 195 L 368.177 191.976 L 368.457 192.648 L 368.457 192.648 Q 368.345 192.928 367.967 193.362 L 367.967 193.362 L 367.967 193.362 Q 367.589 193.796 366.959 194.244 L 366.959 194.244 L 366.959 194.244 Q 366.329 194.692 365.517 194.986 L 365.517 194.986 L 365.517 194.986 Q 364.705 195.28 363.697 195.28 Z  M 364.397 193.124 L 364.397 193.124 L 364.397 193.124 Q 365.377 193.124 366.161 192.76 L 366.161 192.76 L 366.161 192.76 Q 366.945 192.396 367.463 191.738 L 367.463 191.738 L 367.463 191.738 Q 367.981 191.08 368.177 190.156 L 368.177 190.156 L 368.177 187.888 L 368.177 187.888 Q 367.953 187.048 367.393 186.418 L 367.393 186.418 L 367.393 186.418 Q 366.833 185.788 366.049 185.438 L 366.049 185.438 L 366.049 185.438 Q 365.265 185.088 364.313 185.088 L 364.313 185.088 L 364.313 185.088 Q 363.277 185.088 362.409 185.592 L 362.409 185.592 L 362.409 185.592 Q 361.541 186.096 361.023 186.992 L 361.023 186.992 L 361.023 186.992 Q 360.505 187.888 360.505 189.092 L 360.505 189.092 L 360.505 189.092 Q 360.505 190.212 361.037 191.136 L 361.037 191.136 L 361.037 191.136 Q 361.569 192.06 362.465 192.592 L 362.465 192.592 L 362.465 192.592 Q 363.361 193.124 364.397 193.124 Z  M 326.153 189.092 L 326.153 189.092 L 326.153 189.092 Q 326.153 187.356 326.979 185.956 L 326.979 185.956 L 326.979 185.956 Q 327.805 184.556 329.261 183.744 L 329.261 183.744 L 329.261 183.744 Q 330.717 182.932 332.565 182.932 L 332.565 182.932 L 332.565 182.932 Q 334.469 182.932 335.897 183.744 L 335.897 183.744 L 335.897 183.744 Q 337.325 184.556 338.109 185.956 L 338.109 185.956 L 338.109 185.956 Q 338.893 187.356 338.893 189.092 L 338.893 189.092 L 338.893 189.092 Q 338.893 190.828 338.109 192.242 L 338.109 192.242 L 338.109 192.242 Q 337.325 193.656 335.883 194.468 L 335.883 194.468 L 335.883 194.468 Q 334.441 195.28 332.537 195.28 L 332.537 195.28 L 332.537 195.28 Q 330.689 195.28 329.247 194.51 L 329.247 194.51 L 329.247 194.51 Q 327.805 193.74 326.979 192.354 L 326.979 192.354 L 326.979 192.354 Q 326.153 190.968 326.153 189.092 Z  M 328.757 189.12 L 328.757 189.12 L 328.757 189.12 Q 328.757 190.24 329.261 191.15 L 329.261 191.15 L 329.261 191.15 Q 329.765 192.06 330.619 192.592 L 330.619 192.592 L 330.619 192.592 Q 331.473 193.124 332.509 193.124 L 332.509 193.124 L 332.509 193.124 Q 333.601 193.124 334.455 192.592 L 334.455 192.592 L 334.455 192.592 Q 335.309 192.06 335.785 191.15 L 335.785 191.15 L 335.785 191.15 Q 336.261 190.24 336.261 189.12 L 336.261 189.12 L 336.261 189.12 Q 336.261 188 335.785 187.09 L 335.785 187.09 L 335.785 187.09 Q 335.309 186.18 334.455 185.634 L 334.455 185.634 L 334.455 185.634 Q 333.601 185.088 332.509 185.088 L 332.509 185.088 L 332.509 185.088 Q 331.445 185.088 330.591 185.648 L 330.591 185.648 L 330.591 185.648 Q 329.737 186.208 329.247 187.118 L 329.247 187.118 L 329.247 187.118 Q 328.757 188.028 328.757 189.12 Z  M 344.977 195 L 342.373 195 L 342.373 185.732 L 340.385 185.732 L 340.385 183.408 L 342.373 183.408 L 342.373 178.508 L 342.373 178.508 Q 342.373 175.988 343.507 174.644 L 343.507 174.644 L 343.507 174.644 Q 344.641 173.3 346.853 173.3 L 346.853 173.3 L 346.853 173.3 Q 347.441 173.3 348.155 173.468 L 348.155 173.468 L 348.155 173.468 Q 348.869 173.636 349.401 174.028 L 349.401 174.028 L 348.309 175.904 L 348.309 175.904 Q 348.057 175.652 347.749 175.554 L 347.749 175.554 L 347.749 175.554 Q 347.441 175.456 347.133 175.456 L 347.133 175.456 L 347.133 175.456 Q 346.097 175.456 345.537 176.156 L 345.537 176.156 L 345.537 176.156 Q 344.977 176.856 344.977 178.536 L 344.977 178.536 L 344.977 183.408 L 348.645 183.408 L 348.645 185.732 L 344.977 185.732 L 344.977 195 L 344.977 195 Z  M 280.705 189.092 L 280.705 189.092 L 280.705 189.092 Q 280.705 187.356 281.531 185.956 L 281.531 185.956 L 281.531 185.956 Q 282.357 184.556 283.813 183.744 L 283.813 183.744 L 283.813 183.744 Q 285.269 182.932 287.117 182.932 L 287.117 182.932 L 287.117 182.932 Q 289.021 182.932 290.449 183.744 L 290.449 183.744 L 290.449 183.744 Q 291.877 184.556 292.661 185.956 L 292.661 185.956 L 292.661 185.956 Q 293.445 187.356 293.445 189.092 L 293.445 189.092 L 293.445 189.092 Q 293.445 190.828 292.661 192.242 L 292.661 192.242 L 292.661 192.242 Q 291.877 193.656 290.435 194.468 L 290.435 194.468 L 290.435 194.468 Q 288.993 195.28 287.089 195.28 L 287.089 195.28 L 287.089 195.28 Q 285.241 195.28 283.799 194.51 L 283.799 194.51 L 283.799 194.51 Q 282.357 193.74 281.531 192.354 L 281.531 192.354 L 281.531 192.354 Q 280.705 190.968 280.705 189.092 Z  M 283.309 189.12 L 283.309 189.12 L 283.309 189.12 Q 283.309 190.24 283.813 191.15 L 283.813 191.15 L 283.813 191.15 Q 284.317 192.06 285.171 192.592 L 285.171 192.592 L 285.171 192.592 Q 286.025 193.124 287.061 193.124 L 287.061 193.124 L 287.061 193.124 Q 288.153 193.124 289.007 192.592 L 289.007 192.592 L 289.007 192.592 Q 289.861 192.06 290.337 191.15 L 290.337 191.15 L 290.337 191.15 Q 290.813 190.24 290.813 189.12 L 290.813 189.12 L 290.813 189.12 Q 290.813 188 290.337 187.09 L 290.337 187.09 L 290.337 187.09 Q 289.861 186.18 289.007 185.634 L 289.007 185.634 L 289.007 185.634 Q 288.153 185.088 287.061 185.088 L 287.061 185.088 L 287.061 185.088 Q 285.997 185.088 285.143 185.648 L 285.143 185.648 L 285.143 185.648 Q 284.289 186.208 283.799 187.118 L 283.799 187.118 L 283.799 187.118 Q 283.309 188.028 283.309 189.12 Z  M 299.641 195.448 L 299.641 195.448 L 299.641 195.448 Q 298.073 195.448 297.051 194.482 L 297.051 194.482 L 297.051 194.482 Q 296.029 193.516 295.973 191.976 L 295.973 191.976 L 295.973 183.408 L 298.577 183.408 L 298.577 191.052 L 298.577 191.052 Q 298.633 192.004 299.123 192.592 L 299.123 192.592 L 299.123 192.592 Q 299.613 193.18 300.677 193.208 L 300.677 193.208 L 300.677 193.208 Q 301.657 193.208 302.427 192.634 L 302.427 192.634 L 302.427 192.634 Q 303.197 192.06 303.673 191.066 L 303.673 191.066 L 303.673 191.066 Q 304.149 190.072 304.149 188.812 L 304.149 188.812 L 304.149 183.408 L 306.753 183.408 L 306.753 195 L 304.373 195 L 304.149 192.144 L 304.289 192.648 L 304.289 192.648 Q 303.953 193.46 303.267 194.09 L 303.267 194.09 L 303.267 194.09 Q 302.581 194.72 301.657 195.084 L 301.657 195.084 L 301.657 195.084 Q 300.733 195.448 299.641 195.448 Z  M 311.381 183.464 L 311.381 178.312 L 313.985 178.312 L 313.985 183.464 L 317.177 183.464 L 317.177 185.508 L 313.985 185.508 L 313.985 195 L 311.381 195 L 311.381 185.508 L 309.253 185.508 L 309.253 183.464 L 311.381 183.464 L 311.381 183.464 Z  M 209.985 195.28 L 209.985 195.28 L 209.985 195.28 Q 208.669 195.28 207.451 194.664 L 207.451 194.664 L 207.451 194.664 Q 206.233 194.048 205.561 193.012 L 205.561 193.012 L 205.729 192.2 L 205.729 200.572 L 203.153 200.572 L 203.153 183.24 L 205.393 183.24 L 205.757 186.208 L 205.477 185.396 L 205.477 185.396 Q 206.317 184.332 207.605 183.632 L 207.605 183.632 L 207.605 183.632 Q 208.893 182.932 210.489 182.932 L 210.489 182.932 L 210.489 182.932 Q 212.113 182.932 213.415 183.716 L 213.415 183.716 L 213.415 183.716 Q 214.717 184.5 215.473 185.9 L 215.473 185.9 L 215.473 185.9 Q 216.229 187.3 216.229 189.176 L 216.229 189.176 L 216.229 189.176 Q 216.229 191.052 215.417 192.424 L 215.417 192.424 L 215.417 192.424 Q 214.605 193.796 213.191 194.538 L 213.191 194.538 L 213.191 194.538 Q 211.777 195.28 209.985 195.28 Z  M 209.481 193.208 L 209.481 193.208 L 209.481 193.208 Q 210.601 193.208 211.539 192.69 L 211.539 192.69 L 211.539 192.69 Q 212.477 192.172 213.037 191.262 L 213.037 191.262 L 213.037 191.262 Q 213.597 190.352 213.597 189.204 L 213.597 189.204 L 213.597 189.204 Q 213.597 188.028 213.065 187.118 L 213.065 187.118 L 213.065 187.118 Q 212.533 186.208 211.651 185.676 L 211.651 185.676 L 211.651 185.676 Q 210.769 185.144 209.677 185.144 L 209.677 185.144 L 209.677 185.144 Q 208.669 185.144 207.857 185.536 L 207.857 185.536 L 207.857 185.536 Q 207.045 185.928 206.513 186.614 L 206.513 186.614 L 206.513 186.614 Q 205.981 187.3 205.757 188.196 L 205.757 188.196 L 205.757 190.128 L 205.757 190.128 Q 205.897 191.024 206.429 191.724 L 206.429 191.724 L 206.429 191.724 Q 206.961 192.424 207.759 192.816 L 207.759 192.816 L 207.759 192.816 Q 208.557 193.208 209.481 193.208 Z  M 223.573 195.28 L 223.573 195.28 L 223.573 195.28 Q 221.949 195.28 220.619 194.58 L 220.619 194.58 L 220.619 194.58 Q 219.289 193.88 218.519 192.522 L 218.519 192.522 L 218.519 192.522 Q 217.749 191.164 217.749 189.204 L 217.749 189.204 L 217.749 189.204 Q 217.749 187.272 218.561 185.858 L 218.561 185.858 L 218.561 185.858 Q 219.373 184.444 220.731 183.688 L 220.731 183.688 L 220.731 183.688 Q 222.089 182.932 223.713 182.932 L 223.713 182.932 L 223.713 182.932 Q 225.337 182.932 226.457 183.674 L 226.457 183.674 L 226.457 183.674 Q 227.577 184.416 228.165 185.424 L 228.165 185.424 L 227.997 185.872 L 228.249 183.408 L 230.657 183.408 L 230.657 195 L 228.053 195 L 228.053 191.976 L 228.333 192.648 L 228.333 192.648 Q 228.221 192.928 227.843 193.362 L 227.843 193.362 L 227.843 193.362 Q 227.465 193.796 226.835 194.244 L 226.835 194.244 L 226.835 194.244 Q 226.205 194.692 225.393 194.986 L 225.393 194.986 L 225.393 194.986 Q 224.581 195.28 223.573 195.28 Z  M 224.273 193.124 L 224.273 193.124 L 224.273 193.124 Q 225.253 193.124 226.037 192.76 L 226.037 192.76 L 226.037 192.76 Q 226.821 192.396 227.339 191.738 L 227.339 191.738 L 227.339 191.738 Q 227.857 191.08 228.053 190.156 L 228.053 190.156 L 228.053 187.888 L 228.053 187.888 Q 227.829 187.048 227.269 186.418 L 227.269 186.418 L 227.269 186.418 Q 226.709 185.788 225.925 185.438 L 225.925 185.438 L 225.925 185.438 Q 225.141 185.088 224.189 185.088 L 224.189 185.088 L 224.189 185.088 Q 223.153 185.088 222.285 185.592 L 222.285 185.592 L 222.285 185.592 Q 221.417 186.096 220.899 186.992 L 220.899 186.992 L 220.899 186.992 Q 220.381 187.888 220.381 189.092 L 220.381 189.092 L 220.381 189.092 Q 220.381 190.212 220.913 191.136 L 220.913 191.136 L 220.913 191.136 Q 221.445 192.06 222.341 192.592 L 222.341 192.592 L 222.341 192.592 Q 223.237 193.124 224.273 193.124 Z  M 239.737 200.74 L 239.737 200.74 L 239.737 200.74 Q 238.449 200.74 237.469 200.446 L 237.469 200.446 L 237.469 200.446 Q 236.489 200.152 235.691 199.62 L 235.691 199.62 L 235.691 199.62 Q 234.893 199.088 234.165 198.416 L 234.165 198.416 L 235.677 196.652 L 235.677 196.652 Q 236.601 197.52 237.553 197.996 L 237.553 197.996 L 237.553 197.996 Q 238.505 198.472 239.681 198.472 L 239.681 198.472 L 239.681 198.472 Q 240.997 198.472 241.907 198.038 L 241.907 198.038 L 241.907 198.038 Q 242.817 197.604 243.293 196.834 L 243.293 196.834 L 243.293 196.834 Q 243.769 196.064 243.769 195.056 L 243.769 195.056 L 243.797 191.92 L 244.021 192.424 L 244.021 192.424 Q 243.517 193.628 242.201 194.454 L 242.201 194.454 L 242.201 194.454 Q 240.885 195.28 239.009 195.28 L 239.009 195.28 L 239.009 195.28 Q 237.413 195.28 236.083 194.468 L 236.083 194.468 L 236.083 194.468 Q 234.753 193.656 233.955 192.27 L 233.955 192.27 L 233.955 192.27 Q 233.157 190.884 233.157 189.148 L 233.157 189.148 L 233.157 189.148 Q 233.157 187.328 233.997 185.942 L 233.997 185.942 L 233.997 185.942 Q 234.837 184.556 236.209 183.744 L 236.209 183.744 L 236.209 183.744 Q 237.581 182.932 239.205 182.932 L 239.205 182.932 L 239.205 182.932 Q 240.745 182.932 242.019 183.562 L 242.019 183.562 L 242.019 183.562 Q 243.293 184.192 243.881 185.172 L 243.881 185.172 L 243.741 185.648 L 244.021 183.408 L 246.401 183.408 L 246.401 195.084 L 246.401 195.084 Q 246.401 196.652 245.589 197.94 L 245.589 197.94 L 245.589 197.94 Q 244.777 199.228 243.293 199.984 L 243.293 199.984 L 243.293 199.984 Q 241.809 200.74 239.737 200.74 Z  M 235.761 189.092 L 235.761 189.092 L 235.761 189.092 Q 235.761 190.212 236.293 191.136 L 236.293 191.136 L 236.293 191.136 Q 236.825 192.06 237.735 192.592 L 237.735 192.592 L 237.735 192.592 Q 238.645 193.124 239.765 193.124 L 239.765 193.124 L 239.765 193.124 Q 240.801 193.124 241.627 192.746 L 241.627 192.746 L 241.627 192.746 Q 242.453 192.368 243.013 191.71 L 243.013 191.71 L 243.013 191.71 Q 243.573 191.052 243.797 190.184 L 243.797 190.184 L 243.797 187.888 L 243.797 187.888 Q 243.545 187.048 242.957 186.418 L 242.957 186.418 L 242.957 186.418 Q 242.369 185.788 241.557 185.438 L 241.557 185.438 L 241.557 185.438 Q 240.745 185.088 239.765 185.088 L 239.765 185.088 L 239.765 185.088 Q 238.645 185.088 237.735 185.592 L 237.735 185.592 L 237.735 185.592 Q 236.825 186.096 236.293 187.006 L 236.293 187.006 L 236.293 187.006 Q 235.761 187.916 235.761 189.092 Z  M 255.285 195.28 L 255.285 195.28 L 255.285 195.28 Q 253.297 195.28 251.869 194.482 L 251.869 194.482 L 251.869 194.482 Q 250.441 193.684 249.671 192.298 L 249.671 192.298 L 249.671 192.298 Q 248.901 190.912 248.901 189.12 L 248.901 189.12 L 248.901 189.12 Q 248.901 187.412 249.769 186.012 L 249.769 186.012 L 249.769 186.012 Q 250.637 184.612 252.093 183.772 L 252.093 183.772 L 252.093 183.772 Q 253.549 182.932 255.341 182.932 L 255.341 182.932 L 255.341 182.932 Q 257.637 182.932 259.149 184.276 L 259.149 184.276 L 259.149 184.276 Q 260.661 185.62 261.193 187.972 L 261.193 187.972 L 251.645 191.332 L 251.029 189.792 L 258.869 186.936 L 258.309 187.3 L 258.309 187.3 Q 257.973 186.376 257.189 185.69 L 257.189 185.69 L 257.189 185.69 Q 256.405 185.004 255.145 185.004 L 255.145 185.004 L 255.145 185.004 Q 254.081 185.004 253.241 185.522 L 253.241 185.522 L 253.241 185.522 Q 252.401 186.04 251.925 186.936 L 251.925 186.936 L 251.925 186.936 Q 251.449 187.832 251.449 188.98 L 251.449 188.98 L 251.449 188.98 Q 251.449 190.184 251.953 191.094 L 251.953 191.094 L 251.953 191.094 Q 252.457 192.004 253.339 192.522 L 253.339 192.522 L 253.339 192.522 Q 254.221 193.04 255.341 193.04 L 255.341 193.04 L 255.341 193.04 Q 256.097 193.04 256.811 192.76 L 256.811 192.76 L 256.811 192.76 Q 257.525 192.48 258.141 192.032 L 258.141 192.032 L 259.345 193.964 L 259.345 193.964 Q 258.477 194.552 257.399 194.916 L 257.399 194.916 L 257.399 194.916 Q 256.321 195.28 255.285 195.28 Z  M 266.717 195.224 L 266.717 195.224 L 266.717 195.224 Q 265.485 195.224 264.323 194.79 L 264.323 194.79 L 264.323 194.79 Q 263.161 194.356 262.405 193.488 L 262.405 193.488 L 263.497 191.976 L 263.497 191.976 Q 264.225 192.676 264.995 193.026 L 264.995 193.026 L 264.995 193.026 Q 265.765 193.376 266.521 193.376 L 266.521 193.376 L 266.521 193.376 Q 267.081 193.376 267.557 193.236 L 267.557 193.236 L 267.557 193.236 Q 268.033 193.096 268.327 192.774 L 268.327 192.774 L 268.327 192.774 Q 268.621 192.452 268.621 191.892 L 268.621 191.892 L 268.621 191.892 Q 268.621 191.276 268.215 190.912 L 268.215 190.912 L 268.215 190.912 Q 267.809 190.548 267.179 190.324 L 267.179 190.324 L 267.179 190.324 Q 266.549 190.1 265.849 189.904 L 265.849 189.904 L 265.849 189.904 Q 264.421 189.428 263.665 188.588 L 263.665 188.588 L 263.665 188.588 Q 262.909 187.748 262.909 186.544 L 262.909 186.544 L 262.909 186.544 Q 262.909 185.62 263.371 184.822 L 263.371 184.822 L 263.371 184.822 Q 263.833 184.024 264.743 183.52 L 264.743 183.52 L 264.743 183.52 Q 265.653 183.016 266.997 183.016 L 266.997 183.016 L 266.997 183.016 Q 268.201 183.016 269.153 183.31 L 269.153 183.31 L 269.153 183.31 Q 270.105 183.604 270.945 184.276 L 270.945 184.276 L 269.909 185.9 L 269.909 185.9 Q 269.405 185.368 268.705 185.116 L 268.705 185.116 L 268.705 185.116 Q 268.005 184.864 267.445 184.836 L 267.445 184.836 L 267.445 184.836 Q 266.969 184.808 266.535 184.976 L 266.535 184.976 L 266.535 184.976 Q 266.101 185.144 265.821 185.452 L 265.821 185.452 L 265.821 185.452 Q 265.541 185.76 265.541 186.18 L 265.541 186.18 L 265.541 186.18 Q 265.541 186.768 265.933 187.132 L 265.933 187.132 L 265.933 187.132 Q 266.325 187.496 266.955 187.706 L 266.955 187.706 L 266.955 187.706 Q 267.585 187.916 268.201 188.14 L 268.201 188.14 L 268.201 188.14 Q 269.069 188.392 269.741 188.812 L 269.741 188.812 L 269.741 188.812 Q 270.413 189.232 270.819 189.848 L 270.819 189.848 L 270.819 189.848 Q 271.225 190.464 271.225 191.388 L 271.225 191.388 L 271.225 191.388 Q 271.225 192.424 270.735 193.306 L 270.735 193.306 L 270.735 193.306 Q 270.245 194.188 269.251 194.706 L 269.251 194.706 L 269.251 194.706 Q 268.257 195.224 266.717 195.224 Z  M 159.329 183.464 L 159.329 178.312 L 161.933 178.312 L 161.933 183.464 L 165.125 183.464 L 165.125 185.508 L 161.933 185.508 L 161.933 195 L 159.329 195 L 159.329 185.508 L 157.201 185.508 L 157.201 183.464 L 159.329 183.464 L 159.329 183.464 Z  M 169.865 195 L 167.261 195 L 167.261 173.328 L 169.809 173.328 L 169.809 186.096 L 169.753 185.62 L 169.753 185.62 Q 170.341 184.472 171.559 183.716 L 171.559 183.716 L 171.559 183.716 Q 172.777 182.96 174.429 182.96 L 174.429 182.96 L 174.429 182.96 Q 176.081 182.96 177.131 183.926 L 177.131 183.926 L 177.131 183.926 Q 178.181 184.892 178.209 186.432 L 178.209 186.432 L 178.209 195 L 175.577 195 L 175.577 187.356 L 175.577 187.356 Q 175.549 186.404 175.031 185.802 L 175.031 185.802 L 175.031 185.802 Q 174.513 185.2 173.421 185.2 L 173.421 185.2 L 173.421 185.2 Q 172.413 185.2 171.601 185.774 L 171.601 185.774 L 171.601 185.774 Q 170.789 186.348 170.327 187.328 L 170.327 187.328 L 170.327 187.328 Q 169.865 188.308 169.865 189.568 L 169.865 189.568 L 169.865 195 L 169.865 195 Z  M 187.121 195.28 L 187.121 195.28 L 187.121 195.28 Q 185.133 195.28 183.705 194.482 L 183.705 194.482 L 183.705 194.482 Q 182.277 193.684 181.507 192.298 L 181.507 192.298 L 181.507 192.298 Q 180.737 190.912 180.737 189.12 L 180.737 189.12 L 180.737 189.12 Q 180.737 187.412 181.605 186.012 L 181.605 186.012 L 181.605 186.012 Q 182.473 184.612 183.929 183.772 L 183.929 183.772 L 183.929 183.772 Q 185.385 182.932 187.177 182.932 L 187.177 182.932 L 187.177 182.932 Q 189.473 182.932 190.985 184.276 L 190.985 184.276 L 190.985 184.276 Q 192.497 185.62 193.029 187.972 L 193.029 187.972 L 183.481 191.332 L 182.865 189.792 L 190.705 186.936 L 190.145 187.3 L 190.145 187.3 Q 189.809 186.376 189.025 185.69 L 189.025 185.69 L 189.025 185.69 Q 188.241 185.004 186.981 185.004 L 186.981 185.004 L 186.981 185.004 Q 185.917 185.004 185.077 185.522 L 185.077 185.522 L 185.077 185.522 Q 184.237 186.04 183.761 186.936 L 183.761 186.936 L 183.761 186.936 Q 183.285 187.832 183.285 188.98 L 183.285 188.98 L 183.285 188.98 Q 183.285 190.184 183.789 191.094 L 183.789 191.094 L 183.789 191.094 Q 184.293 192.004 185.175 192.522 L 185.175 192.522 L 185.175 192.522 Q 186.057 193.04 187.177 193.04 L 187.177 193.04 L 187.177 193.04 Q 187.933 193.04 188.647 192.76 L 188.647 192.76 L 188.647 192.76 Q 189.361 192.48 189.977 192.032 L 189.977 192.032 L 191.181 193.964 L 191.181 193.964 Q 190.313 194.552 189.235 194.916 L 189.235 194.916 L 189.235 194.916 Q 188.157 195.28 187.121 195.28 Z  M 110.093 176.296 L 109.057 178.368 L 109.057 178.368 Q 108.021 177.836 106.789 177.444 L 106.789 177.444 L 106.789 177.444 Q 105.557 177.052 104.381 177.052 L 104.381 177.052 L 104.381 177.052 Q 102.757 177.052 101.791 177.808 L 101.791 177.808 L 101.791 177.808 Q 100.825 178.564 100.825 179.824 L 100.825 179.824 L 100.825 179.824 Q 100.825 180.776 101.441 181.434 L 101.441 181.434 L 101.441 181.434 Q 102.057 182.092 103.065 182.568 L 103.065 182.568 L 103.065 182.568 Q 104.073 183.044 105.165 183.464 L 105.165 183.464 L 105.165 183.464 Q 106.117 183.828 107.041 184.276 L 107.041 184.276 L 107.041 184.276 Q 107.965 184.724 108.707 185.396 L 108.707 185.396 L 108.707 185.396 Q 109.449 186.068 109.883 187.048 L 109.883 187.048 L 109.883 187.048 Q 110.317 188.028 110.317 189.484 L 110.317 189.484 L 110.317 189.484 Q 110.317 191.08 109.519 192.396 L 109.519 192.396 L 109.519 192.396 Q 108.721 193.712 107.237 194.468 L 107.237 194.468 L 107.237 194.468 Q 105.753 195.224 103.709 195.224 L 103.709 195.224 L 103.709 195.224 Q 102.365 195.224 101.147 194.916 L 101.147 194.916 L 101.147 194.916 Q 99.929 194.608 98.893 194.118 L 98.893 194.118 L 98.893 194.118 Q 97.857 193.628 97.045 193.096 L 97.045 193.096 L 98.249 190.968 L 98.249 190.968 Q 98.921 191.444 99.789 191.878 L 99.789 191.878 L 99.789 191.878 Q 100.657 192.312 101.609 192.578 L 101.609 192.578 L 101.609 192.578 Q 102.561 192.844 103.457 192.844 L 103.457 192.844 L 103.457 192.844 Q 104.409 192.844 105.347 192.494 L 105.347 192.494 L 105.347 192.494 Q 106.285 192.144 106.901 191.416 L 106.901 191.416 L 106.901 191.416 Q 107.517 190.688 107.517 189.484 L 107.517 189.484 L 107.517 189.484 Q 107.517 188.448 106.971 187.762 L 106.971 187.762 L 106.971 187.762 Q 106.425 187.076 105.529 186.586 L 105.529 186.586 L 105.529 186.586 Q 104.633 186.096 103.625 185.704 L 103.625 185.704 L 103.625 185.704 Q 102.673 185.34 101.693 184.906 L 101.693 184.906 L 101.693 184.906 Q 100.713 184.472 99.873 183.842 L 99.873 183.842 L 99.873 183.842 Q 99.033 183.212 98.529 182.288 L 98.529 182.288 L 98.529 182.288 Q 98.025 181.364 98.025 180.048 L 98.025 180.048 L 98.025 180.048 Q 98.025 178.452 98.795 177.262 L 98.795 177.262 L 98.795 177.262 Q 99.565 176.072 100.909 175.386 L 100.909 175.386 L 100.909 175.386 Q 102.253 174.7 103.989 174.644 L 103.989 174.644 L 103.989 174.644 Q 105.949 174.644 107.447 175.12 L 107.447 175.12 L 107.447 175.12 Q 108.945 175.596 110.093 176.296 L 110.093 176.296 L 110.093 176.296 Z  M 113.237 195 L 113.237 173.328 L 115.841 173.328 L 115.841 195 L 113.237 195 L 113.237 195 Z  M 124.165 195.28 L 124.165 195.28 L 124.165 195.28 Q 122.541 195.28 121.211 194.58 L 121.211 194.58 L 121.211 194.58 Q 119.881 193.88 119.111 192.522 L 119.111 192.522 L 119.111 192.522 Q 118.341 191.164 118.341 189.204 L 118.341 189.204 L 118.341 189.204 Q 118.341 187.272 119.153 185.858 L 119.153 185.858 L 119.153 185.858 Q 119.965 184.444 121.323 183.688 L 121.323 183.688 L 121.323 183.688 Q 122.681 182.932 124.305 182.932 L 124.305 182.932 L 124.305 182.932 Q 125.929 182.932 127.049 183.674 L 127.049 183.674 L 127.049 183.674 Q 128.169 184.416 128.757 185.424 L 128.757 185.424 L 128.589 185.872 L 128.841 183.408 L 131.249 183.408 L 131.249 195 L 128.645 195 L 128.645 191.976 L 128.925 192.648 L 128.925 192.648 Q 128.813 192.928 128.435 193.362 L 128.435 193.362 L 128.435 193.362 Q 128.057 193.796 127.427 194.244 L 127.427 194.244 L 127.427 194.244 Q 126.797 194.692 125.985 194.986 L 125.985 194.986 L 125.985 194.986 Q 125.173 195.28 124.165 195.28 Z  M 124.865 193.124 L 124.865 193.124 L 124.865 193.124 Q 125.845 193.124 126.629 192.76 L 126.629 192.76 L 126.629 192.76 Q 127.413 192.396 127.931 191.738 L 127.931 191.738 L 127.931 191.738 Q 128.449 191.08 128.645 190.156 L 128.645 190.156 L 128.645 187.888 L 128.645 187.888 Q 128.421 187.048 127.861 186.418 L 127.861 186.418 L 127.861 186.418 Q 127.301 185.788 126.517 185.438 L 126.517 185.438 L 126.517 185.438 Q 125.733 185.088 124.781 185.088 L 124.781 185.088 L 124.781 185.088 Q 123.745 185.088 122.877 185.592 L 122.877 185.592 L 122.877 185.592 Q 122.009 186.096 121.491 186.992 L 121.491 186.992 L 121.491 186.992 Q 120.973 187.888 120.973 189.092 L 120.973 189.092 L 120.973 189.092 Q 120.973 190.212 121.505 191.136 L 121.505 191.136 L 121.505 191.136 Q 122.037 192.06 122.933 192.592 L 122.933 192.592 L 122.933 192.592 Q 123.829 193.124 124.865 193.124 Z  M 141.589 195.28 L 141.589 195.28 L 141.589 195.28 Q 140.273 195.28 139.055 194.664 L 139.055 194.664 L 139.055 194.664 Q 137.837 194.048 137.165 193.012 L 137.165 193.012 L 137.333 192.2 L 137.333 200.572 L 134.757 200.572 L 134.757 183.24 L 136.997 183.24 L 137.361 186.208 L 137.081 185.396 L 137.081 185.396 Q 137.921 184.332 139.209 183.632 L 139.209 183.632 L 139.209 183.632 Q 140.497 182.932 142.093 182.932 L 142.093 182.932 L 142.093 182.932 Q 143.717 182.932 145.019 183.716 L 145.019 183.716 L 145.019 183.716 Q 146.321 184.5 147.077 185.9 L 147.077 185.9 L 147.077 185.9 Q 147.833 187.3 147.833 189.176 L 147.833 189.176 L 147.833 189.176 Q 147.833 191.052 147.021 192.424 L 147.021 192.424 L 147.021 192.424 Q 146.209 193.796 144.795 194.538 L 144.795 194.538 L 144.795 194.538 Q 143.381 195.28 141.589 195.28 Z  M 141.085 193.208 L 141.085 193.208 L 141.085 193.208 Q 142.205 193.208 143.143 192.69 L 143.143 192.69 L 143.143 192.69 Q 144.081 192.172 144.641 191.262 L 144.641 191.262 L 144.641 191.262 Q 145.201 190.352 145.201 189.204 L 145.201 189.204 L 145.201 189.204 Q 145.201 188.028 144.669 187.118 L 144.669 187.118 L 144.669 187.118 Q 144.137 186.208 143.255 185.676 L 143.255 185.676 L 143.255 185.676 Q 142.373 185.144 141.281 185.144 L 141.281 185.144 L 141.281 185.144 Q 140.273 185.144 139.461 185.536 L 139.461 185.536 L 139.461 185.536 Q 138.649 185.928 138.117 186.614 L 138.117 186.614 L 138.117 186.614 Q 137.585 187.3 137.361 188.196 L 137.361 188.196 L 137.361 190.128 L 137.361 190.128 Q 137.501 191.024 138.033 191.724 L 138.033 191.724 L 138.033 191.724 Q 138.565 192.424 139.363 192.816 L 139.363 192.816 L 139.363 192.816 Q 140.161 193.208 141.085 193.208 Z " fill="rgb(255,77,217)"/><path d=" M 0.001 31.202 L 0 99.969 C 0.001 107.027 16.214 133.468 16.214 133.468 L 16.221 133.474 L 16.221 195.89 C 16.221 200.37 19.851 204 24.331 204 C 28.816 204.006 32.441 200.371 32.441 195.891 L 32.441 133.473 L 32.451 133.463 C 32.451 133.463 48.673 107.026 48.673 99.969 L 48.661 31.202 C 48.661 18.544 37.774 17.446 24.331 17.447 C 10.889 17.448 0.001 18.544 0.001 31.202 Z  M 34.827 100.014 C 35.936 100.966 36.502 102.114 36.502 103.447 C 36.507 104.606 36.177 105.821 35.51 107.082 C 34.86 108.336 33.607 109.994 31.723 112.034 C 29.269 114.71 27.5 116.907 26.386 118.627 C 25.501 119.983 24.841 121.416 24.38 122.894 C 23.916 121.366 23.259 119.937 22.403 118.598 C 21.552 117.255 19.894 115.192 17.436 112.363 C 15.638 110.297 14.523 108.98 14.113 108.426 C 13.426 107.525 12.92 106.695 12.618 105.934 C 12.322 105.177 12.165 104.415 12.171 103.637 C 12.166 102.198 12.714 101 13.817 100.032 C 14.921 99.064 16.277 98.581 17.912 98.581 C 19.548 98.581 20.965 99.078 22.168 100.093 C 23.07 100.838 23.81 101.957 24.381 103.448 C 24.879 101.986 25.562 100.877 26.453 100.109 C 27.691 99.085 29.119 98.564 30.738 98.558 C 32.346 98.563 33.713 99.046 34.827 100.014 Z  M 34.821 67.568 C 35.941 68.521 36.495 69.668 36.502 71.007 C 36.502 72.162 36.171 73.376 35.51 74.642 C 34.861 75.898 33.601 77.549 31.718 79.589 C 29.276 82.267 27.501 84.467 26.391 86.18 C 25.506 87.536 24.841 88.964 24.386 90.448 C 23.916 88.925 23.266 87.491 22.41 86.152 C 21.554 84.813 19.895 82.741 17.436 79.924 C 15.632 77.851 14.523 76.54 14.115 75.987 C 13.426 75.075 12.915 74.25 12.625 73.488 C 12.322 72.738 12.165 71.975 12.165 71.191 C 12.165 69.757 12.715 68.559 13.817 67.59 C 14.921 66.62 16.277 66.139 17.907 66.134 C 19.543 66.134 20.966 66.638 22.176 67.646 C 23.077 68.391 23.811 69.517 24.387 71.002 C 24.875 69.54 25.558 68.431 26.454 67.669 C 27.691 66.633 29.121 66.111 30.733 66.111 C 32.345 66.111 33.707 66.599 34.821 67.568 Z  M 34.822 35.117 C 35.941 36.08 36.496 37.228 36.503 38.556 C 36.496 39.715 36.173 40.936 35.517 42.197 C 34.862 43.457 33.595 45.103 31.719 47.148 C 29.277 49.826 27.507 52.022 26.394 53.741 C 25.508 55.097 24.847 56.52 24.383 58.003 C 23.918 56.485 23.269 55.052 22.417 53.707 C 21.554 52.373 19.89 50.296 17.443 47.479 C 15.638 45.407 14.53 44.096 14.116 43.548 C 13.428 42.635 12.923 41.807 12.627 41.05 C 12.324 40.301 12.167 39.538 12.167 38.754 C 12.167 37.32 12.716 36.121 13.825 35.147 C 14.922 34.184 16.283 33.697 17.902 33.691 C 19.537 33.691 20.961 34.195 22.17 35.204 C 23.078 35.955 23.817 37.075 24.387 38.564 C 24.869 37.097 25.563 35.988 26.449 35.226 C 27.692 34.196 29.12 33.675 30.738 33.669 C 32.353 33.667 33.707 34.149 34.822 35.117 Z " fill="rgb(98,98,98)"/></g></svg>